<?xml version="1.0" standalone="no"?>
<!DOCTYPE svg PUBLIC "-//W3C//DTD SVG 20010904//EN"
 "http://www.w3.org/TR/2001/REC-SVG-20010904/DTD/svg10.dtd">
<svg version="1.0" xmlns="http://www.w3.org/2000/svg"
 width="368.000000pt" height="429.000000pt" viewBox="0 0 368.000000 429.000000"
 preserveAspectRatio="xMidYMid meet">

<g transform="translate(0.000000,429.000000) scale(0.100000,-0.100000)"
fill="#000000" stroke="none">
<path d="M650 4284 c-14 -3 -49 -17 -79 -32 -77 -39 -91 -70 -91 -198 0 -81
-3 -103 -15 -108 -8 -3 -15 -11 -15 -18 0 -10 2 -10 9 1 7 10 13 11 27 2 16
-9 17 -10 2 -11 -42 0 -23 -55 28 -76 20 -8 34 -21 34 -32 0 -14 2 -15 10 -2
8 13 11 13 22 1 7 -8 8 -11 2 -8 -24 14 -23 -26 1 -69 16 -28 20 -44 12 -44
-9 0 -9 -2 0 -8 20 -12 2 -57 -24 -59 -30 -3 -41 32 -17 58 23 26 12 24 -78
-11 -160 -61 -186 -80 -254 -181 -50 -76 -79 -137 -123 -257 l-30 -82 63 -29
c35 -16 69 -38 77 -49 8 -11 31 -30 52 -42 32 -19 37 -27 37 -60 0 -32 10 -49
78 -126 42 -49 96 -107 119 -130 30 -28 40 -44 33 -52 -6 -7 -7 -10 -4 -7 11
7 36 -24 29 -36 -5 -7 -13 -5 -25 6 -17 16 -55 11 -44 -6 11 -19 -5 -8 -40 27
-21 21 -40 33 -47 28 -9 -5 -10 -2 -6 10 4 10 3 15 -3 11 -14 -9 -77 64 -102
118 -12 26 -24 47 -28 47 -3 0 -18 -13 -33 -28 -30 -32 -34 -67 -11 -100 8
-12 13 -31 9 -41 -5 -18 2 -20 94 -26 95 -7 100 -9 130 -40 17 -18 31 -42 31
-52 0 -19 38 -63 55 -63 29 0 105 -86 105 -119 0 -13 -58 -41 -87 -41 -12 0
-23 -5 -23 -11 0 -5 4 -7 10 -4 6 3 7 -1 4 -9 -9 -23 6 -19 56 15 43 29 71 34
76 14 2 -5 -25 -28 -58 -49 -55 -36 -59 -41 -41 -49 16 -7 28 -4 52 14 22 16
48 24 93 27 45 2 59 0 48 -7 -12 -8 -12 -13 -3 -22 9 -9 16 -9 28 1 20 17 29
7 16 -18 -13 -24 -47 -47 -84 -56 -34 -8 -31 -27 7 -37 20 -6 38 -2 64 13 49
27 52 32 20 26 -27 -5 -27 -5 8 28 23 20 33 37 29 45 -5 7 -4 10 3 5 6 -3 42
-2 79 5 37 6 78 12 89 13 12 2 37 12 56 24 33 20 34 20 35 2 1 -13 -3 -17 -15
-13 -14 4 -14 3 -2 -5 18 -13 30 -6 30 17 0 10 7 24 16 32 13 11 14 9 8 -16
-5 -21 -4 -27 7 -23 8 3 14 16 15 29 0 29 20 59 52 77 27 15 28 3 2 -31 -20
-26 -27 -57 -11 -57 4 0 20 11 34 24 15 14 35 27 46 31 13 4 18 11 14 22 -5
12 -2 15 11 10 9 -4 24 -2 34 4 13 8 50 -1 162 -41 80 -28 153 -54 163 -57 9
-3 17 -9 17 -14 0 -5 7 -6 15 -3 8 4 15 1 15 -5 0 -6 -11 -11 -24 -11 -15 0
-35 -14 -55 -37 -26 -31 -34 -35 -41 -23 -9 13 -10 13 -10 0 0 -8 -30 -35 -68
-60 -37 -24 -69 -47 -72 -50 -3 -3 -34 -20 -70 -39 -58 -31 -117 -68 -231
-144 -25 -17 -36 -32 -35 -48 1 -29 15 -40 39 -33 16 5 17 -22 14 -528 -2
-293 -7 -547 -11 -564 -7 -26 -4 -34 15 -48 30 -20 78 -21 107 0 26 18 28 42
7 70 -12 16 -14 100 -15 558 l0 539 26 22 c14 12 31 33 38 46 11 23 102 88
298 213 51 33 126 81 165 107 40 26 75 45 77 41 3 -4 5 -242 5 -527 1 -467 -1
-523 -16 -552 -15 -29 -15 -33 0 -57 14 -21 25 -26 60 -26 59 0 82 18 72 56
-5 16 -10 112 -12 214 l-4 185 32 -49 c18 -27 95 -132 171 -234 76 -102 137
-191 135 -196 -9 -23 -78 -258 -126 -429 -28 -97 -62 -205 -75 -239 l-25 -62
40 -38 c30 -29 39 -43 34 -58 -8 -26 -21 -25 -48 3 -35 38 -49 37 -102 -7 -27
-23 -85 -68 -128 -100 -113 -85 -115 -130 -7 -147 72 -11 137 3 223 51 41 22
84 40 96 40 24 0 102 37 113 53 4 6 6 42 6 80 l-1 70 78 28 c42 16 83 33 91
40 21 17 59 181 78 329 16 130 125 350 173 350 8 0 27 14 43 32 16 17 31 30
33 27 2 -2 21 -34 41 -71 l37 -66 -16 -235 c-18 -283 -18 -257 -1 -257 16 0
17 17 37 310 6 91 13 168 17 171 9 8 582 143 586 138 2 -2 15 -89 30 -194 36
-253 36 -255 52 -255 18 0 18 7 -6 163 -11 73 -51 353 -90 622 -83 582 -77
550 -96 534 -12 -10 -13 -9 -8 5 5 12 2 15 -10 10 -20 -8 -21 -23 -2 -38 9 -7
30 -124 64 -366 28 -195 49 -356 48 -358 -2 -1 -44 68 -93 155 l-90 158 -12
170 c-14 211 -14 205 5 205 9 0 12 5 8 12 -4 6 -3 8 4 5 14 -10 42 2 42 18 0
9 -19 12 -72 9 l-73 -3 73 11 c39 6 72 14 72 17 0 3 -33 5 -72 4 -53 -1 -65 1
-43 7 17 4 54 8 83 9 28 0 52 6 52 11 0 6 5 10 11 10 5 0 7 -4 4 -10 -3 -5 0
-10 8 -10 8 0 22 17 33 37 10 21 24 43 31 50 13 15 6 53 -11 53 -6 0 -3 5 6
11 9 5 15 16 12 23 -5 13 -21 13 -94 2 l-35 -6 30 15 c17 7 43 16 58 20 32 6
27 25 -6 25 -18 0 -19 2 -7 10 12 8 10 10 -10 11 -14 0 -19 3 -12 6 49 20 -45
23 -102 3 -16 -6 -31 -10 -33 -10 -9 0 4 25 13 25 23 2 84 28 84 36 0 6 -5 7
-10 4 -5 -3 -10 -1 -10 4 0 16 -31 9 -74 -17 -22 -13 -51 -24 -67 -25 -25 -2
-27 -5 -22 -32 3 -16 13 -36 21 -42 10 -8 11 -13 4 -13 -7 0 -12 -4 -12 -10 0
-5 19 -10 43 -11 l42 -1 -42 -10 c-44 -9 -59 -28 -24 -28 27 0 35 -17 12 -23
-14 -3 -20 -18 -25 -67 -9 -79 -24 -97 -66 -78 -32 14 -38 24 -18 30 7 3 5 7
-6 11 -10 4 -15 3 -11 -3 4 -6 -6 -7 -23 -4 -24 5 -31 2 -36 -14 -11 -34 -40
-52 -89 -53 -33 -2 -45 -5 -37 -13 12 -12 12 -84 -1 -111 -6 -14 -8 -4 -6 37
2 31 0 55 -4 52 -10 -6 -39 24 -39 40 0 7 -9 21 -20 31 -15 14 -20 31 -20 72
0 62 14 100 72 196 49 81 44 89 -45 70 -151 -31 -217 -11 -347 108 -50 46 -99
84 -108 84 -13 0 -20 -18 -32 -79 l-16 -79 -80 -56 c-43 -30 -125 -100 -181
-155 l-103 -99 0 162 0 161 50 31 c28 17 47 35 43 41 -3 7 -1 8 5 4 6 -3 46
17 89 45 70 45 111 76 74 54 -10 -5 -12 -4 -7 4 4 6 12 9 17 5 14 -8 40 16 32
29 -4 6 0 8 11 4 10 -4 15 -3 11 3 -3 6 2 10 12 10 17 1 17 2 -1 15 -11 8 -14
15 -8 15 7 0 12 4 12 10 0 13 -73 -25 -95 -50 -12 -14 -22 -17 -34 -11 -12 7
-36 -3 -89 -38 -40 -26 -82 -57 -95 -68 -12 -11 -30 -23 -40 -26 -17 -6 -17
-5 -1 23 10 16 22 28 28 27 6 -1 10 5 10 15 -1 9 13 24 32 34 19 10 34 22 34
26 0 5 -18 -3 -40 -17 -21 -13 -46 -22 -55 -19 -20 8 -19 12 8 35 l22 20 -39
-16 c-36 -14 -43 -14 -125 11 -105 32 -132 44 -125 55 17 27 11 55 -17 87 -40
45 -34 72 31 134 52 50 83 64 126 55 23 -4 28 1 44 35 12 28 19 35 23 24 4 -9
1 -16 -5 -16 -6 0 -8 -3 -5 -6 3 -4 2 -15 -4 -26 -15 -28 -1 -36 17 -10 8 12
20 20 25 17 14 -9 11 -25 -4 -19 -8 2 -13 -4 -14 -16 -2 -18 0 -19 14 -5 17
17 84 48 90 41 10 -9 10 -42 0 -54 -20 -25 0 -21 24 5 13 14 18 23 10 18 -9
-5 -12 -4 -7 3 4 6 13 9 21 6 22 -9 35 29 33 98 -1 62 -15 100 -47 126 -17 14
-35 16 -27 3 3 -5 -2 -15 -12 -22 -15 -13 -16 -12 -3 4 7 9 10 17 5 17 -5 0
-1 7 9 14 13 10 16 21 11 40 -3 14 -10 26 -15 26 -5 0 -6 7 -2 16 5 14 3 15
-15 5 -13 -7 -22 -8 -22 -2 0 5 6 12 13 15 6 3 -1 3 -18 -1 -42 -11 -145 -7
-157 5 -7 7 -7 20 -1 39 11 31 1 73 -18 73 -6 0 -35 -24 -64 -54 -70 -73 -104
-86 -230 -86 -56 0 -117 -5 -134 -11 -55 -19 -59 2 -12 54 23 24 41 49 41 55
0 5 -44 50 -98 99 -54 48 -112 100 -128 115 -16 14 -52 51 -81 81 -53 56 -97
78 -189 92 -41 6 -42 7 -34 40 4 19 5 37 2 40 -10 9 -11 36 -1 30 16 -10 89
34 94 58 12 59 10 67 -33 104 -38 34 -44 45 -58 113 -19 91 -49 135 -103 150
-49 13 -119 19 -151 14z m246 -222 c8 -22 29 -49 46 -62 23 -17 27 -24 17 -31
-25 -15 -42 -10 -36 11 6 23 -16 45 -35 34 -10 -5 -10 -4 -1 6 8 9 7 16 -5 31
-18 21 -24 49 -11 49 5 0 16 -17 25 -38z m-237 -64 c6 -17 9 -33 6 -36 -3 -3
0 -11 6 -19 9 -10 8 -13 -4 -13 -8 0 -17 -4 -19 -9 -2 -5 -13 -5 -26 0 -25 9
-24 18 0 82 14 35 24 34 37 -5z m329 -66 c2 -13 -7 -32 -22 -47 -30 -29 -46
-32 -46 -7 0 10 -5 23 -12 30 -9 9 -9 12 0 12 7 0 11 5 10 12 -3 11 38 28 57
24 6 -2 11 -12 13 -24z m-462 -52 c4 -24 2 -31 -8 -27 -7 2 -11 11 -9 18 2 8
3 22 3 33 -1 28 9 12 14 -24z m381 -12 c-3 -7 -5 -2 -5 12 0 14 2 19 5 13 2
-7 2 -19 0 -25z m-269 -18 c-7 -11 -18 -16 -27 -12 -14 5 -14 4 -2 -11 8 -10
11 -20 7 -24 -3 -3 -6 -1 -6 5 0 6 -15 15 -33 21 -19 7 -34 18 -34 26 0 13 2
13 17 0 15 -14 19 -13 34 4 23 25 60 17 44 -9z m219 -20 c-1 -11 -5 -20 -9
-20 -10 0 -10 4 -2 24 8 22 13 20 11 -4z m-37 -14 c0 -3 -4 -8 -10 -11 -5 -3
-10 -1 -10 4 0 6 5 11 10 11 6 0 10 -2 10 -4z m344 -685 c11 -12 24 -21 29
-21 15 0 47 -31 47 -46 0 -7 -26 -28 -57 -48 l-57 -35 -17 28 c-10 16 -22 32
-28 36 -6 3 -9 16 -7 28 3 12 8 43 11 70 l6 47 27 -19 c15 -10 36 -28 46 -40z
m956 -95 c0 -3 -4 -8 -10 -11 -5 -3 -10 -1 -10 4 0 6 5 11 10 11 6 0 10 -2 10
-4z m-290 -20 c0 -3 -4 -8 -10 -11 -5 -3 -10 -1 -10 4 0 6 5 11 10 11 6 0 10
-2 10 -4z m-224 -50 c24 8 13 -1 -59 -49 -32 -20 -63 -34 -69 -31 -6 4 -8 3
-4 -4 6 -10 -34 -44 -84 -70 -61 -32 -140 -98 -188 -155 -18 -23 -25 -25 -36
-15 -16 15 -7 38 32 81 35 37 16 34 -24 -4 -31 -30 -32 -30 -52 -13 -12 10
-19 21 -16 26 3 5 0 7 -8 6 -7 -2 -12 5 -12 14 1 10 -2 16 -6 13 -5 -3 -11 -1
-15 5 -7 12 -25 14 -25 3 0 -5 34 -53 75 -108 43 -57 73 -107 71 -117 -3 -12
1 -15 13 -11 9 4 13 3 9 -2 -4 -4 0 -14 10 -21 9 -7 15 -14 12 -17 -3 -3 -59
-21 -125 -40 -66 -20 -127 -38 -136 -42 -12 -4 -42 28 -118 131 -99 135 -111
157 -91 169 6 4 8 10 5 15 -3 4 39 37 93 72 131 87 180 116 164 96 -12 -14 -9
-15 25 -2 21 7 55 13 76 14 34 0 42 7 38 33 -1 4 7 3 18 -2 10 -6 21 -8 24 -5
3 3 46 7 97 8 50 2 85 -1 78 -5 -7 -4 -10 -10 -7 -14 7 -7 82 24 90 37 4 6 13
8 20 6 9 -3 1 -11 -19 -22 -19 -10 -31 -20 -28 -24 4 -3 -13 -14 -36 -23 -24
-10 -42 -22 -40 -29 1 -6 -11 -16 -28 -21 -16 -6 -28 -15 -25 -19 3 -5 -3 -13
-12 -19 -10 -5 -15 -12 -12 -15 6 -6 112 62 117 76 2 4 13 8 25 8 22 -1 22 -1
3 -15 -11 -8 -15 -15 -9 -15 5 0 18 9 28 20 10 11 15 20 10 20 -4 0 4 10 19
21 15 12 30 19 33 15 4 -3 1 -6 -5 -6 -7 0 -12 -5 -12 -10 0 -7 6 -7 20 0 11
6 19 16 17 23 -1 7 8 12 20 12 11 0 25 3 29 8 4 4 2 7 -5 7 -7 0 -9 5 -5 11 5
8 8 8 14 0 3 -7 15 -9 26 -5z m-176 -182 c-6 -16 -16 -32 -22 -35 -6 -4 -11
-17 -12 -30 -1 -18 -6 -23 -21 -21 -20 4 -20 3 0 -12 20 -15 20 -15 -3 -11
-18 3 -22 1 -18 -11 3 -9 0 -22 -8 -30 -20 -20 -28 -17 -21 7 7 20 6 20 -19
-2 -33 -28 -33 -37 -1 -34 34 4 31 -10 -5 -25 -18 -7 -27 -17 -23 -24 4 -6 -1
-5 -10 3 -18 14 -24 77 -7 66 5 -3 7 0 4 8 -5 15 93 117 114 117 11 0 13 5 12
26 -1 6 44 43 48 40 1 -2 -2 -16 -8 -32z m-76 -28 c-3 -8 -13 -17 -22 -21 -13
-5 -13 -2 3 15 21 24 26 25 19 6z m-44 -40 c0 -2 -7 -7 -16 -10 -8 -3 -12 -2
-9 4 6 10 25 14 25 6z m-595 -104 c4 -20 18 -63 32 -95 13 -32 23 -61 20 -63
-7 -8 -44 47 -62 94 -10 23 -20 40 -24 38 -3 -2 -7 21 -8 52 l-2 57 19 -23
c11 -13 22 -40 25 -60z m549 64 c-3 -8 -13 -17 -22 -21 -13 -5 -13 -2 3 15 21
24 26 25 19 6z m126 -40 c0 -2 -8 -10 -17 -17 -16 -13 -17 -12 -4 4 13 16 21
21 21 13z m-749 -46 c17 0 46 -33 32 -37 -12 -4 -5 -43 8 -43 5 0 9 -5 9 -10
0 -6 11 -23 24 -37 36 -38 21 -49 -17 -13 -24 23 -33 26 -35 15 -2 -8 -8 -12
-14 -8 -8 4 -9 0 -4 -13 4 -12 -3 -7 -18 11 -14 17 -26 39 -26 50 0 15 -2 17
-9 7 -11 -19 -21 7 -21 57 0 49 16 65 41 40 10 -10 24 -19 30 -19z m129 -41
c0 -14 -17 -10 -23 5 -4 10 -1 13 9 9 7 -3 14 -9 14 -14z m539 -102 c-2 -1
-12 -9 -21 -16 -15 -12 -18 -11 -18 3 0 10 8 16 22 16 12 0 19 -1 17 -3z
m-593 -62 c18 -13 18 -14 -4 -8 -12 3 -25 9 -28 14 -8 14 10 11 32 -6z m2629
-295 c3 -5 1 -10 -4 -10 -6 0 -11 5 -11 10 0 6 2 10 4 10 3 0 8 -4 11 -10z
m-801 -166 c0 -51 -43 -276 -53 -287 -5 -5 -14 -3 -20 5 -6 7 -36 44 -66 82
l-56 70 88 88 c48 48 92 87 98 85 5 -2 10 -21 9 -43z m733 -130 c6 -71 12
-149 12 -174 l1 -46 -162 -37 c-88 -20 -162 -36 -164 -35 -1 2 2 64 7 138 8
121 12 142 41 203 l32 67 83 0 c46 0 83 4 83 8 0 4 12 7 28 6 l27 -1 12 -129z
m-342 -219 c-6 -79 -8 -85 -31 -91 -14 -4 -27 -4 -29 -2 -3 2 9 46 26 97 17
51 33 90 36 87 3 -3 2 -44 -2 -91z m373 -187 c7 -84 12 -170 12 -190 0 -37 15
-58 30 -42 4 5 2 81 -5 169 -8 88 -13 160 -12 162 2 1 43 -68 91 -153 49 -85
87 -156 85 -159 -7 -6 -569 -138 -573 -134 -3 4 23 422 27 425 7 4 296 72 313
73 20 1 21 -7 32 -151z m-381 30 c-3 -18 -9 -98 -13 -178 -3 -80 -9 -149 -12
-154 -2 -4 -16 14 -31 40 -25 46 -26 51 -13 89 13 39 13 40 -17 65 -37 30 -38
41 -10 108 21 50 31 59 78 61 21 1 23 -2 18 -31z m-97 -154 c0 -8 -4 -12 -10
-9 -5 3 -10 10 -10 16 0 5 5 9 10 9 6 0 10 -7 10 -16z"/>
<path d="M1335 2804 l-30 -26 33 22 c17 12 32 23 32 26 0 7 -4 5 -35 -22z"/>
<path d="M1214 2708 l-19 -23 23 19 c21 18 27 26 19 26 -2 0 -12 -10 -23 -22z"/>
<path d="M2250 3695 c-79 -17 -108 -33 -153 -88 -36 -41 -41 -55 -45 -107 -3
-44 0 -66 12 -85 9 -13 16 -31 16 -40 0 -8 9 -20 20 -27 11 -7 20 -18 20 -25
0 -7 7 -10 15 -7 12 5 13 10 4 20 -7 9 -8 14 -1 14 17 0 99 -97 106 -126 5
-19 1 -32 -16 -50 -13 -13 -29 -24 -36 -24 -8 0 -10 -5 -5 -12 4 -7 8 -20 9
-28 6 -42 28 -122 36 -126 12 -7 47 37 48 59 0 12 8 17 30 17 69 0 230 80 230
114 0 8 10 20 23 29 18 12 26 31 36 95 15 94 4 169 -36 243 -27 50 -88 119
-107 119 -6 0 -22 6 -36 13 -14 8 -39 16 -55 20 -17 3 -37 8 -45 10 -8 2 -40
-1 -70 -8z m-136 -307 c11 -10 17 -18 12 -18 -16 0 -56 42 -56 59 1 12 3 11
12 -4 6 -11 20 -28 32 -37z"/>
<path d="M2265 2997 c-16 -52 -16 -50 -1 -38 13 11 14 8 6 -19 -5 -18 -16 -43
-25 -57 -9 -13 -14 -30 -12 -36 2 -7 17 12 34 41 37 65 40 60 56 -91 8 -80 15
-106 24 -103 8 3 13 -3 14 -17 1 -17 2 -18 6 -4 2 9 -3 49 -12 89 -17 77 -28
211 -17 204 4 -3 9 7 10 22 l1 27 -21 -28 -21 -28 -18 27 c-15 24 -19 25 -24
11z"/>
<path d="M2111 2893 c-16 -57 -13 -88 10 -114 l20 -24 -7 35 c-5 19 -8 59 -8
88 0 28 -1 52 -2 52 -2 0 -8 -17 -13 -37z"/>
<path d="M2393 2896 c4 -22 11 -44 16 -49 6 -6 6 7 0 34 -13 56 -24 66 -16 15z"/>
<path d="M1940 2710 c-8 -5 -10 -10 -5 -10 6 0 17 5 25 10 8 5 11 10 5 10 -5
0 -17 -5 -25 -10z"/>
<path d="M240 2645 c-8 -9 -8 -15 -2 -15 12 0 26 19 19 26 -2 2 -10 -2 -17
-11z"/>
<path d="M185 2620 c-3 -5 -2 -17 3 -25 7 -13 10 -12 20 10 9 20 9 25 -3 25
-7 0 -17 -4 -20 -10z"/>
<path d="M2102 2618 c-7 -7 -12 -16 -12 -21 0 -5 7 -1 16 8 9 9 14 18 12 20
-2 3 -10 -1 -16 -7z"/>
<path d="M3183 2388 c2 -26 7 -32 27 -34 29 -3 102 27 82 34 -7 2 -19 -2 -27
-8 -10 -9 -15 -9 -15 -1 0 9 -49 41 -64 41 -2 0 -4 -14 -3 -32z"/>
<path d="M1183 2297 c-28 -28 -41 -35 -48 -29 -4 4 -5 1 -3 -7 2 -9 -12 -23
-32 -33 -25 -14 -28 -17 -10 -13 14 4 42 10 63 15 50 10 61 22 51 53 -7 19
-12 22 -21 14z"/>
<path d="M351 2293 c1 -4 0 -15 -3 -23 -3 -8 -20 -53 -37 -100 -38 -102 -61
-182 -61 -215 0 -16 -6 -25 -15 -25 -24 0 -18 -44 10 -70 l26 -24 -32 -16 -31
-17 27 -21 c15 -12 34 -22 41 -22 22 0 88 120 87 160 -2 37 -7 33 149 128 l38
23 0 -270 0 -270 -52 31 -53 31 9 77 c11 89 4 123 -29 156 -26 26 -50 32 -42
11 3 -7 -6 -23 -19 -36 -13 -13 -24 -28 -24 -35 0 -6 -12 -13 -27 -14 -33 -3
-44 -12 -15 -12 12 0 24 1 25 3 2 1 11 -4 20 -12 15 -12 18 -10 26 10 7 18 10
20 10 6 1 -26 -28 -66 -73 -98 -35 -26 -40 -27 -51 -12 -10 13 -13 14 -20 2
-5 -8 -5 -11 -1 -7 5 4 18 -5 30 -19 21 -24 25 -25 56 -15 18 7 36 10 39 7 3
-3 -5 -8 -17 -12 -26 -6 -29 -23 -4 -23 15 -1 15 -2 -3 -12 -19 -11 -19 -11 0
-19 19 -6 18 -8 -5 -17 l-25 -11 24 -7 23 -7 -23 -13 -24 -13 25 -10 c24 -9
24 -10 3 -10 -30 -1 -38 -19 -11 -24 13 -2 3 -5 -22 -6 -53 -1 -90 7 -90 21 0
6 7 8 15 4 8 -3 15 -1 15 5 0 5 -7 12 -15 15 -24 10 -17 26 8 19 20 -6 21 -5
5 8 -10 8 -18 20 -18 27 0 10 3 10 15 0 21 -17 19 -1 -2 23 -17 19 -17 19 7
13 l25 -7 -23 18 c-13 10 -20 22 -16 26 4 4 14 1 22 -6 13 -10 14 -9 10 3 -7
22 -45 25 -52 3 -9 -31 -26 -146 -26 -180 0 -29 4 -33 38 -42 20 -6 65 -14 99
-17 l62 -7 15 37 c9 21 21 64 28 98 7 33 18 62 25 65 6 3 32 -9 57 -27 l46
-31 0 -244 c0 -211 2 -245 15 -245 13 0 15 34 15 244 l0 244 105 67 c94 60
118 85 82 85 -7 0 -49 -25 -94 -55 -46 -30 -85 -55 -88 -55 -3 0 -5 122 -5
270 0 248 4 293 25 260 9 -15 25 -12 25 5 0 8 -11 22 -25 31 -17 11 -25 25
-25 44 0 15 -7 33 -15 40 -13 11 -15 7 -15 -28 0 -38 -2 -41 -78 -91 -43 -28
-81 -51 -84 -51 -3 0 14 37 37 83 63 122 64 130 13 165 -46 31 -90 49 -87 35z"/>
<path d="M1385 2266 c10 -14 19 -26 22 -26 7 0 -17 39 -28 46 -6 3 -3 -5 6
-20z"/>
<path d="M680 2270 c-12 -8 -11 -10 7 -10 12 0 25 5 28 10 8 13 -15 13 -35 0z"/>
<path d="M682 2225 c-19 -16 -22 -23 -11 -27 16 -6 99 27 99 40 0 18 -63 8
-88 -13z"/>
<path d="M3129 2207 c-33 -88 -46 -137 -38 -137 5 0 9 5 9 12 0 6 9 3 20 -7
15 -14 20 -15 20 -4 0 11 2 11 10 -1 8 -12 10 -12 10 -1 0 11 3 11 15 1 13
-11 15 -7 15 30 0 43 -28 150 -39 150 -3 0 -13 -19 -22 -43z"/>
<path d="M1100 2200 c0 -5 4 -10 9 -10 6 0 13 5 16 10 3 6 -1 10 -9 10 -9 0
-16 -4 -16 -10z"/>
<path d="M765 2141 c-7 -12 31 -25 45 -16 6 4 8 11 5 16 -8 12 -42 12 -50 0z"/>
<path d="M677 2078 c-8 -27 17 -222 37 -297 8 -29 25 -64 37 -77 l21 -23 37
28 c20 15 53 40 74 55 56 41 48 63 -10 26 -26 -17 -54 -30 -62 -29 -9 0 -5 5
9 11 24 10 24 10 5 18 -18 8 -18 9 5 9 14 1 32 6 40 11 12 8 10 10 -9 8 -16
-2 -25 3 -26 15 -2 12 3 17 18 17 20 0 20 0 1 -16 -18 -15 -18 -15 2 -5 14 7
24 7 31 0 6 -6 10 -5 10 5 0 8 -5 12 -10 9 -6 -4 -8 2 -5 15 5 19 4 20 -14 11
-27 -15 -34 -4 -11 16 19 16 19 17 -9 72 -16 31 -39 64 -52 72 -86 58 -106 71
-110 71 -2 0 -6 -10 -9 -22z"/>
<path d="M1164 2004 c-18 -15 -18 -15 2 -5 12 6 25 7 29 3 5 -4 5 -1 1 6 -9
15 -8 15 -32 -4z"/>
<path d="M1090 1983 c0 -5 4 -14 9 -22 7 -10 13 -11 30 -2 12 7 19 16 16 22
-7 11 -55 12 -55 2z"/>
<path d="M900 1882 c0 -5 23 -24 50 -42 28 -18 50 -35 50 -39 0 -4 -11 -14
-25 -21 -14 -7 -25 -22 -25 -33 0 -18 2 -18 36 3 19 12 36 21 38 19 2 -2 18
-98 37 -212 27 -170 36 -207 49 -204 8 1 14 9 13 17 -1 8 -18 112 -38 230 -20
118 -37 227 -38 241 -2 19 -6 25 -19 21 -10 -2 -18 0 -18 5 0 5 -12 10 -27 11
-16 0 -40 4 -55 8 -17 4 -28 2 -28 -4z m100 -22 c8 -5 12 -11 9 -14 -3 -3 -14
1 -25 9 -21 16 -8 20 16 5z"/>
<path d="M50 1834 c0 -8 5 -12 10 -9 6 4 8 11 5 16 -9 14 -15 11 -15 -7z"/>
<path d="M42 1560 c-30 -186 -33 -235 -11 -213 11 11 72 380 65 398 -14 36
-23 2 -54 -185z"/>
<path d="M270 1570 c0 -5 9 -10 21 -10 11 0 17 5 14 10 -3 6 -13 10 -21 10 -8
0 -14 -4 -14 -10z"/>
<path d="M275 1540 c-4 -6 3 -10 14 -10 25 0 27 6 6 13 -8 4 -17 2 -20 -3z"/>
<path d="M265 1500 c3 -5 15 -10 26 -10 11 0 17 5 14 10 -3 6 -15 10 -26 10
-11 0 -17 -4 -14 -10z"/>
<path d="M263 1459 c14 -8 22 -8 30 0 8 8 3 11 -18 11 -26 -1 -28 -2 -12 -11z"/>
</g>
</svg>
